<?xml version="1.0" encoding="utf-8"?>
<!-- Generator: Adobe Illustrator 27.4.0, SVG Export Plug-In . SVG Version: 6.00 Build 0)  -->
<svg version="1.1" id="Camada_1" xmlns="http://www.w3.org/2000/svg" xmlns:xlink="http://www.w3.org/1999/xlink" x="0px" y="0px"
	 viewBox="0 0 595.3 841.9" style="enable-background:new 0 0 595.3 841.9;" xml:space="preserve">
<style type="text/css">
	.st0{fill:none;stroke:#FFFFFF;stroke-width:5;stroke-miterlimit:10;}
	.st1{fill:none;stroke:#FFFFFF;stroke-width:4;stroke-miterlimit:10;}
	.st2{fill:#FFFFFF;stroke:#FFFFFF;stroke-miterlimit:10;}
	.st3{fill:#FFFFFF;stroke:#FFFFFF;stroke-width:4;stroke-miterlimit:10;}
</style>
<path class="st0" d="M459.7,392.3c-4.1-4.4-6.1-12-6.9-20c-1.4-13.1,1.3-25.8,3.4-38.8c2.9-18.3,7.2-40.1,8.5-55
	c5.7-61.3-19.9-121.8-68.9-159.1C365.7,96.6,328.2,83,287.5,83h0h0c-40.7,0-78.2,13.6-108.2,36.5c-49,37.4-74.6,97.8-68.9,159.1
	c1.4,14.8,5.6,36.7,8.5,55c2.1,13,4.8,25.7,3.4,38.8c-0.8,8-2.8,15.6-6.9,20"/>
<path class="st1" d="M287.9,726L287.9,726c81.9,0,148.3-66.4,148.3-148.3v0c0-21.7-2.4-43.4-7.1-64.6c-5.1-23.4-7.9-60.5,13.2-93.4
	c1.3-2.1,2-4.5,2-7l0,0c0-2.5-0.7-4.9-2-7c-21.1-32.9-18.3-70-13.2-93.4c4.6-21.2,7.1-42.9,7.1-64.6v0
	c0-81.9-66.4-148.3-148.3-148.3h0h-0.7h0c-81.9,0-148.3,66.4-148.3,148.3v0c0,21.7,2.4,43.4,7.1,64.6c5.1,23.4,7.9,60.5-13.2,93.4
	c-1.3,2.1-2,4.5-2,7l0,0c0,2.5,0.7,4.9,2,7c21.1,32.9,18.3,70,13.2,93.4c-4.6,21.2-7.1,42.9-7.1,64.6v0
	c0,81.9,66.4,148.3,148.3,148.3h0H287.9z"/>
<path class="st0" d="M459.7,433c-4.1,4.4-6.1,12-6.9,20c-1.4,13.1,1.3,25.8,3.4,38.8c2.9,18.3,7.2,40.1,8.5,55
	c5.7,61.3-19.9,121.8-68.9,159.1c-30,22.9-67.5,36.5-108.2,36.5h0h0c-40.7,0-78.2-13.6-108.2-36.5c-49-37.4-74.6-97.8-68.9-159.1
	c1.4-14.8,5.6-36.7,8.5-55c2.1-13,4.8-25.7,3.4-38.8c-0.8-8-2.8-15.6-6.9-20"/>
<path class="st2" d="M100.6,398L100.6,398c-2.5,0.8-5.3-0.1-6.8-2.3l-2.6-3.9c-4.2-6.3-6.1-13.8-5.5-21.3l0.6-7.4
	c0.1-1.4,1.2-2.6,2.6-2.9h0c1.3-0.2,2.6,0.3,3.3,1.4l7.3,11.2c3.2,4.9,5,10.7,5.1,16.6l0,3C104.6,394.9,103,397.2,100.6,398z"/>
<path class="st2" d="M100.7,428.4L100.7,428.4c2.5,0.9,4.1,3.4,3.9,6l-0.4,4.6c-0.6,7.5-3.7,14.6-8.7,20.2l-5,5.5
	c-1,1.1-2.5,1.4-3.8,0.7l0,0c-1.2-0.6-1.8-1.8-1.7-3.1L86,449c0.5-5.9,2.6-11.5,6.2-16.2l1.8-2.4C95.5,428.4,98.2,427.6,100.7,428.4
	z"/>
<line class="st2" x1="91" y1="415.1" x2="91" y2="414.4"/>
<path class="st2" d="M91,414.4c2.8,13.6-6.1,22-10.9,25.5c-1.6,1.2-3.6,1.8-5.6,1.8h0c-3.4,0-6.8,0.7-9.9,2.1l-12.9,5.7
	c-0.9,0.4-1.9-0.3-1.8-1.3l1.3-20.1c0-0.7,0.6-1.2,1.3-1.2h0c1.5,0,2.7-1.2,2.7-2.7l0,0c0-1.5-1.2-2.7-2.7-2.7h-0.2
	c-3.8,0-6.9-3.1-6.9-6.9l0,0l0,0c0-3.8,3.1-6.9,6.9-6.9h0.2c1.5,0,2.7-1.2,2.7-2.7l0,0c0-1.5-1.2-2.7-2.7-2.7h0
	c-0.7,0-1.3-0.5-1.3-1.2l-1.3-20.1c-0.1-1,0.9-1.6,1.8-1.3l12.9,5.7c3.1,1.4,6.5,2.1,9.9,2.1h0c2,0,4,0.6,5.6,1.8
	c4.8,3.5,13.7,11.9,10.9,25.5"/>
<path class="st2" d="M473.7,398L473.7,398c2.5,0.8,5.3-0.1,6.8-2.3l2.6-3.9c4.2-6.3,6.1-13.8,5.5-21.3l-0.6-7.4
	c-0.1-1.4-1.2-2.6-2.6-2.9h0c-1.3-0.2-2.6,0.3-3.3,1.4l-7.3,11.2c-3.2,4.9-5,10.7-5.1,16.6l0,3C469.7,394.9,471.3,397.2,473.7,398z"
	/>
<path class="st2" d="M473.6,428.4L473.6,428.4c-2.5,0.9-4.1,3.4-3.9,6l0.4,4.6c0.6,7.5,3.7,14.6,8.7,20.2l5,5.5
	c1,1.1,2.5,1.4,3.8,0.7l0,0c1.2-0.6,1.8-1.8,1.7-3.1l-1.1-13.3c-0.5-5.9-2.6-11.5-6.2-16.2l-1.8-2.4
	C478.8,428.4,476.1,427.6,473.6,428.4z"/>
<line class="st2" x1="483.3" y1="415.1" x2="483.3" y2="414.4"/>
<path class="st2" d="M483.3,414.4c-2.8,13.6,6.1,22,10.9,25.5c1.6,1.2,3.6,1.8,5.6,1.8l0,0c3.4,0,6.8,0.7,9.9,2.1l12.9,5.7
	c0.9,0.4,1.9-0.3,1.8-1.3l-1.3-20.1c0-0.7-0.6-1.2-1.3-1.2l0,0c-1.5,0-2.7-1.2-2.7-2.7l0,0c0-1.5,1.2-2.7,2.7-2.7h0.2
	c3.8,0,6.9-3.1,6.9-6.9l0,0l0,0c0-3.8-3.1-6.9-6.9-6.9h-0.2c-1.5,0-2.7-1.2-2.7-2.7l0,0c0-1.5,1.2-2.7,2.7-2.7l0,0
	c0.7,0,1.3-0.5,1.3-1.2l1.3-20.1c0.1-1-0.9-1.6-1.8-1.3l-12.9,5.7c-3.1,1.4-6.5,2.1-9.9,2.1l0,0c-2,0-4,0.6-5.6,1.8
	c-4.8,3.5-13.7,11.9-10.9,25.5"/>
<g>
	<path class="st2" d="M220.4,658.9c-3.3,18.2,15,23.5,30.2,23.5c13.6,0,30.6-12.3,30.6-28.4c0-16.1-13.4-29.5-29.6-28.1
		c-7.2,0.6-14.8,1.5-20.2,5.4c-0.8,0.5-1.8,0.6-2.6,0.1l0,0c-0.7-0.4-1.2-1.2-1.2-2.1v-12.2c0-1.4,0.6-2.7,1.5-3.7l0,0
		c1-1,2.3-1.5,3.7-1.5h31.8l10.4-8c2-1.5,2.2-4.4,0.4-6.1l0,0c-1.1-1.1-2.8-1.5-4.3-0.9l0,0c-0.8,0.3-4.8,0.4-5.6,0.4l-37.3-0.7
		c-2.9-0.1-5.3,2.2-5.5,5.1l-1.9,34.6v0.8c0,3,2.4,5.4,5.4,5.4l0,0c1.1,0,2.2-0.4,3.2-1l4.6-3.4c2.3-1.6,4.9-2.7,7.6-3.2l0,0
		c6.2-1,12.6,1.3,16.4,6.2c2.8,3.6,4.5,8.3,4.5,13.4c0,11.1-7.9,20.1-17.7,20.1h-5.7c-3.1,0-5.7-2.6-5.7-5.7v-10.6
		c0-3.7-3-6.6-6.6-6.6h0c-3.8,0-6.8,3.2-6.6,7L220.4,658.9z"/>
	<path class="st2" d="M290.9,679.6L290.9,679.6h56.5c4.2,0,5.5-3,5.5-7.1l2-17.8c0-2-1.6-3.6-3.6-3.6h-0.2c-1.9,0-3.4,1.5-3.4,3.4
		l0,0c0,5.6-4.5,10.1-10.1,10.1h-23.9c-1.3,0-2.3-1-2.3-2.3l0,0c0-0.8,0.4-1.6,1.2-2l11.7-6.7c12.2-7,20.9-18.7,24-32.5l0.3-1.3
		c0,0,0-0.1,0-0.1v0c0-14.6-11.8-26.4-26.4-26.4H313c-13.7,0-24.8,11.1-24.8,24.8l0,0l0,0c0,4.5,1.6,8.8,4.4,12.2l0.1,0.1
		c3.1,3.7,8.9,3.8,12.1,0.2h0c3.5-3.9,2.4-10-2.2-12.4l-3.9-2.1c-1.8-1-2.4-3.2-1.4-5l0,0c2.1-4,6.1-8.2,9.2-9.2l7.2-1
		c7.9,0,12.9,4.6,15.2,11c0.9,2.5,1.3,5.1,1.3,7.8v0.2l0,0c0,3.6-0.7,7.3-2,10.7l-1.6,4c-4.8,8.7-12.8,15.5-19.7,22.6l-12.1,12.5
		C292.4,672.5,290.9,676,290.9,679.6z"/>
</g>
<line class="st3" x1="201.6" y1="573" x2="389.8" y2="573"/>
<path class="st3" d="M271.1,142.6l-55.3,171.9c-0.8,2.5-3.1,4.2-5.8,4.2c-4.8,0-8.7,3.9-8.7,8.7v4.4h47.3v-7.8
	c0-4.3-2.9-6.4-7.2-6.4l-1.6,0.1c-4.6,0.2-7.9-4.2-6.5-8.6l11.6-37.2c1-3.1,3.8-5.2,7-5.2h39.4c2.6,0,5,1.6,5.9,4.1l13.6,36.4
	c1.2,3.3-1.2,6.7-4.7,6.7H305c-5.2,0-9.5,4.2-9.5,9.5v5.7h38.2c3.1,0,5.3-3.1,4.2-6.1L271.1,142.6 M248.7,252.9l20.4-63.2l24.5,63.2
	H248.7z"/>
<path class="st2" d="M277.3,142.6h17.4c0.5,0,1,0.3,1.2,0.8l62,159.2c2.7,6.8,9.3,11.4,16.6,11.4h0c2.2,0,4,1.8,4,4v5.6
	c0,2.2-1.8,4-4,4h-28.3c-0.9,0-1.7-0.5-2-1.4l-68.1-181.8C275.8,143.5,276.4,142.6,277.3,142.6z"/>
<path class="st2" d="M307.9,538.9c0,0,42.1-27.2,13-60.1c-5.7-6.5-13-11.2-21.1-14.2c-16.7-6.1-53-22.9-49.9-51.5
	c0.3-2.7,0.6-5.4,0.8-8.2c0.6-7.7,4.1-24.9,23.6-32.4c10.4-4.1,22.1-3.8,32.5,0.3c12.5,4.9,28.6,15.7,31,39.5
	c0.4,3.7,3.4,6.6,7.2,6.8l0,0c2.9,0,5.3-2.4,5.3-5.3v-46.1c0-3.3-2.7-6.1-6.1-6.1h0c-3.3,0-6.1,2.7-6.1,6.1v0.9c0,2.5-2,4.5-4.5,4.5
	h-0.9c0,0,0.9,0,0.9,0c-0.8,0-1.7-1.7-2.3-2.1c-2.9-2-10.7-7.1-18.2-9.1c-7.5-2-30.8-2.7-30.8-2.7l-0.2,0.1
	c-40.7-1.9-109.2,77.9-2.4,117.4l0,0C279.8,476.8,347.6,488.3,307.9,538.9"/>
<path class="st2" d="M278.1,376c0,0-42.1,27.2-13,60.1c5.7,6.5,13,11.2,21.1,14.2c16.7,6.1,54,22.9,50.9,51.5
	c-0.3,2.7-0.6,5.4-0.8,8.2c-0.6,7.7-5.2,24.8-24.6,32.4c-10.4,4.1-22.1,3.8-32.5-0.3c-12.5-4.9-36.5-27.9-39-51.7
	c-0.4-3.7-3.4-6.6-7.2-6.8h0c-2.9,0-5.3,2.4-5.3,5.3v55.6c0,3.3,2.7,6.1,6.1,6.1l0,0c3.3,0,6.1-2.7,6.1-6.1v-0.9
	c-2.6-8.8,7.2-8.5,12.4-1.9l1.3,1c0,0-1.3-1-1.3-1c0.8,0,1.7,1.7,2.3,2.1c2.9,2,10.7,7.1,18.2,9.1c7.5,2,30.8,2.7,30.8,2.7l0.2-0.1
	c40.7,1.9,107.7-76.8,2.5-117.7l0,0C306.2,437.8,238.3,426.6,278.1,376"/>
</svg>
